<?xml version="1.0" standalone="no"?>
<!DOCTYPE svg PUBLIC "-//W3C//DTD SVG 20010904//EN"
 "http://www.w3.org/TR/2001/REC-SVG-20010904/DTD/svg10.dtd">
<svg version="1.0" xmlns="http://www.w3.org/2000/svg"
 width="256.000000pt" height="256.000000pt" viewBox="0 0 256.000000 256.000000"
 preserveAspectRatio="xMidYMid meet">

<g transform="translate(0.000000,256.000000) scale(0.100000,-0.100000)"
fill="#000000" stroke="none">
<path d="M1017 2543 c-3 -5 -14 -44 -26 -88 -28 -100 -81 -212 -118 -247 -17
-17 -64 -39 -121 -57 -52 -17 -96 -31 -98 -31 -2 0 -4 18 -4 39 0 27 -5 41
-16 45 -23 9 -44 -12 -44 -44 0 -15 -6 -33 -14 -39 -12 -10 -15 -4 -21 31 -14
81 -94 131 -155 98 -51 -27 -43 -84 23 -157 l35 -39 -55 -29 c-71 -37 -144
-108 -176 -171 -37 -74 -197 -618 -197 -670 0 -24 20 -37 39 -25 6 4 30 72 52
152 67 242 140 482 156 512 22 44 79 103 134 138 27 17 52 29 55 27 2 -3 -6
-61 -20 -129 -13 -68 -30 -162 -37 -209 -12 -82 -14 -87 -71 -153 -109 -127
-191 -263 -208 -344 -30 -138 59 -340 195 -446 51 -39 55 -45 55 -84 0 -62 24
-166 75 -320 24 -76 49 -168 54 -205 10 -75 16 -88 36 -88 45 0 34 100 -35
315 -50 159 -80 289 -68 301 4 3 31 -2 60 -12 95 -31 285 -19 318 21 18 22 0
47 -29 42 -14 -3 -54 -10 -89 -17 -176 -34 -389 84 -473 263 -35 77 -52 165
-40 218 12 51 71 157 136 243 57 76 130 152 120 124 -5 -12 7 -25 42 -48 99
-67 129 -106 174 -224 15 -42 32 -65 72 -97 75 -61 104 -97 128 -159 31 -83
60 -89 80 -16 30 114 112 226 190 261 31 14 41 26 49 54 19 70 102 130 236
170 39 12 88 32 108 46 21 14 35 21 31 15 -4 -6 9 -32 28 -58 18 -26 45 -68
60 -93 14 -25 59 -75 99 -111 44 -39 85 -87 102 -118 26 -49 28 -58 22 -124
-4 -46 -17 -92 -35 -131 -15 -33 -26 -66 -23 -73 7 -23 47 -13 65 18 l18 30
28 -21 29 -21 -79 -163 c-126 -260 -180 -455 -161 -580 6 -45 10 -50 32 -50
24 0 25 3 23 50 -7 150 38 300 174 578 74 150 101 197 115 197 33 0 31 29 -12
130 -47 113 -63 132 -87 107 -14 -14 -13 -22 17 -93 27 -65 30 -81 21 -102
l-12 -24 -32 25 c-28 22 -31 29 -27 63 11 86 1 208 -30 374 -30 161 -31 180
-20 237 12 64 9 83 -15 83 -48 0 -63 -146 -31 -298 10 -46 16 -85 14 -87 -2
-2 -28 15 -58 39 -35 28 -73 73 -109 132 -31 48 -66 93 -77 99 -21 10 -21 12
25 125 69 169 138 295 201 362 l55 60 75 -16 c159 -34 262 -113 326 -251 28
-61 182 -580 209 -703 8 -39 30 -51 51 -30 14 13 13 22 -1 79 -40 155 -158
560 -181 620 -27 72 -82 169 -117 208 -31 34 -114 85 -172 106 -27 10 -51 19
-53 21 -2 1 6 17 17 35 25 40 27 72 6 89 -20 16 -35 4 -49 -42 -8 -21 -21 -36
-43 -45 l-33 -13 0 40 c0 89 -59 156 -128 146 -19 -3 -40 -10 -48 -17 -22 -18
-17 -71 11 -112 29 -42 21 -46 -34 -17 -90 46 -150 153 -167 299 -7 64 -23 88
-50 77 -14 -6 -16 -17 -10 -75 18 -196 107 -330 249 -375 l55 -17 -53 -74
c-56 -79 -122 -206 -179 -348 -19 -48 -45 -97 -58 -107 -13 -11 -66 -33 -118
-50 -116 -36 -191 -85 -230 -148 -33 -55 -40 -62 -103 -108 -26 -19 -63 -58
-83 -87 -30 -45 -34 -48 -28 -22 14 67 66 157 146 256 126 155 164 215 148
234 -21 26 -35 17 -83 -52 -26 -38 -69 -94 -96 -126 l-50 -57 -6 37 c-14 81
-25 103 -52 103 -25 0 -25 -2 -19 -42 21 -132 20 -174 -8 -232 -15 -31 -32
-80 -38 -110 l-10 -54 -73 72 c-56 55 -77 84 -93 129 -12 32 -35 78 -52 102
-33 48 -146 135 -175 135 -13 0 -4 14 32 53 63 67 68 76 83 171 10 65 10 80
-2 87 -31 20 -44 0 -62 -90 -8 -47 -21 -80 -35 -94 -20 -21 -21 -21 -21 -2 0
33 69 358 77 366 4 4 71 26 147 49 165 49 206 68 240 113 64 84 149 324 126
353 -13 15 -36 19 -43 7z m807 -299 c19 -18 31 -62 21 -72 -8 -8 -64 57 -65
76 0 17 25 15 44 -4z m-1345 -57 c6 -8 14 -29 17 -48 l7 -34 -42 40 c-22 21
-41 43 -41 47 0 13 47 9 59 -5z"/>
<path d="M1007 753 c-39 -39 111 -150 254 -188 64 -17 203 -18 274 -1 44 10
50 14 50 36 0 23 -3 25 -35 22 -19 -2 -89 -4 -155 -5 -117 -2 -122 -1 -190 31
-38 18 -93 51 -121 73 -51 39 -65 45 -77 32z"/>
</g>
</svg>
