<?xml version="1.0" standalone="no"?>
<!DOCTYPE svg PUBLIC "-//W3C//DTD SVG 20010904//EN"
 "http://www.w3.org/TR/2001/REC-SVG-20010904/DTD/svg10.dtd">
<svg version="1.0" xmlns="http://www.w3.org/2000/svg"
 width="256.000000pt" height="256.000000pt" viewBox="0 0 256.000000 256.000000"
 preserveAspectRatio="xMidYMid meet">

<g transform="translate(0.000000,256.000000) scale(0.100000,-0.100000)"
fill="#000000" stroke="none">
<path d="M1860 2542 c0 -18 -28 -134 -34 -139 -2 -2 -37 5 -77 16 -110 30
-247 50 -394 57 -380 19 -769 -88 -1080 -297 -114 -76 -255 -194 -255 -213 0
-7 11 -23 25 -36 l24 -23 58 53 c213 195 491 336 788 400 126 27 477 39 607
21 104 -15 258 -50 258 -59 0 -4 -10 -20 -23 -36 l-23 -29 -115 24 c-102 21
-139 24 -344 23 -197 0 -244 -3 -330 -22 -328 -71 -601 -218 -826 -444 -166
-167 -162 -216 27 -397 115 -110 281 -227 407 -286 42 -21 77 -41 77 -45 0 -4
-14 -37 -30 -72 -46 -99 -63 -193 -57 -328 8 -200 69 -341 212 -486 150 -152
306 -217 520 -218 146 -1 199 11 334 76 92 44 116 61 190 137 99 99 141 165
184 288 25 73 31 107 35 203 5 136 -12 228 -59 331 -18 38 -30 71 -28 73 2 2
40 22 85 44 132 66 285 175 400 285 138 132 167 191 129 270 -17 37 -115 142
-192 208 l-53 45 28 32 27 33 68 -62 68 -62 25 23 c13 13 24 29 24 36 0 7 -33
40 -72 75 -40 34 -73 65 -73 68 1 3 8 31 17 61 9 30 19 74 22 98 l6 42 -45 0
c-44 0 -45 -1 -45 -31 0 -37 -20 -119 -29 -119 -8 0 -81 49 -81 55 0 2 7 30
15 62 8 31 15 70 15 85 0 26 -3 28 -39 28 l-39 0 -11 -61 c-6 -34 -13 -64 -16
-67 -3 -4 -25 4 -49 17 l-43 24 13 42 c7 23 14 62 15 86 l4 44 -43 3 c-42 3
-42 3 -42 -30 0 -18 -5 -50 -11 -71 -11 -40 -11 -40 -76 -16 -27 10 -27 12 -8
86 8 31 15 70 15 85 0 26 -3 28 -40 28 -32 0 -40 -4 -40 -18z m55 -262 c47
-20 49 -25 17 -62 -18 -22 -32 -22 -78 -3 l-35 14 23 36 c13 19 24 35 25 35 1
0 22 -9 48 -20z m-514 -64 c162 -35 325 -161 394 -308 85 -178 82 -361 -7
-530 -17 -32 -34 -58 -37 -58 -3 1 -19 11 -34 24 l-28 23 29 59 c17 32 36 79
42 103 17 63 14 191 -5 258 -68 237 -307 391 -547 353 -244 -37 -418 -240
-419 -486 -1 -94 11 -147 53 -228 l29 -59 -28 -23 c-15 -13 -31 -23 -34 -24
-3 0 -20 26 -37 58 -121 228 -81 495 101 677 145 145 332 202 528 161z m690
-17 c43 -21 43 -20 1 -70 -12 -15 -16 -15 -52 5 -45 24 -46 27 -24 61 20 30
24 30 75 4z m-1257 -61 c-170 -157 -246 -396 -199 -623 8 -38 35 -112 60 -163
l46 -92 -27 -35 c-14 -19 -31 -35 -37 -35 -25 0 -246 126 -330 188 -108 81
-255 225 -263 259 -18 69 232 294 462 415 87 46 289 126 321 127 7 1 -8 -18
-33 -41z m968 6 c202 -70 397 -189 555 -338 89 -84 127 -138 119 -169 -8 -33
-174 -194 -278 -271 -78 -57 -291 -176 -316 -176 -5 0 -22 16 -36 35 l-27 35
46 92 c58 118 78 213 72 333 -9 169 -85 335 -206 448 -28 26 -46 47 -42 47 5
0 56 -16 113 -36z m445 -36 c18 -13 33 -26 33 -30 0 -4 -11 -19 -23 -34 l-24
-27 -36 22 c-42 26 -44 32 -21 66 20 31 29 31 71 3z m-1020 -75 c-41 -44 -67
-111 -67 -176 0 -68 16 -110 60 -161 51 -58 103 -80 185 -80 111 0 181 47 228
154 l25 55 17 -59 c27 -93 18 -206 -24 -291 -26 -52 -37 -65 -49 -60 -229 94
-415 94 -644 0 -12 -5 -23 8 -50 62 -31 64 -33 74 -33 173 0 97 2 110 31 170
36 76 79 129 141 171 50 35 134 67 177 68 l30 1 -27 -27z m261 -33 c36 -22 68
-69 78 -113 22 -104 -86 -213 -189 -192 -87 19 -143 92 -135 177 6 55 28 92
78 126 43 29 121 30 168 2z m-248 -877 l0 -278 -197 198 -198 197 30 25 c72
60 253 133 333 134 l32 1 0 -277z m195 262 c69 -17 206 -83 250 -120 l30 -25
-197 -197 -198 -198 0 278 0 277 28 0 c15 0 55 -7 87 -15z m-265 -598 c0 -4
-123 -6 -272 -5 l-273 3 3 45 c5 90 62 229 130 318 l25 33 194 -193 c106 -106
193 -196 193 -201z m699 248 c39 -80 79 -225 66 -245 -7 -12 -545 -15 -545 -3
0 4 87 95 193 201 l192 192 27 -32 c15 -18 45 -69 67 -113z m-889 -530 l-195
-196 -27 32 c-60 71 -116 204 -133 317 l-7 42 279 0 278 0 -195 -195z m955
153 c-17 -113 -73 -246 -133 -317 l-27 -32 -195 196 -195 195 278 0 279 0 -7
-42z m-695 -293 l0 -275 -33 0 c-84 0 -255 68 -328 130 l-34 29 195 195 c107
108 196 196 197 196 2 0 3 -124 3 -275z m440 -146 c-72 -62 -243 -129 -327
-129 l-33 0 0 277 0 278 198 -198 197 -198 -35 -30z"/>
</g>
</svg>
