<svg xmlns="http://www.w3.org/2000/svg"  viewBox="0 0 32 32" width="32px" height="32px"><path d="M 18.125 4 C 14.820313 4 10.960938 4.546875 7.96875 7.5625 C 4.976563 10.578125 3 15.867188 3 25 L 3 26 L 12.65625 26 C 13.644531 26.625 14.757813 27 16 27 C 17.238281 27 18.355469 26.617188 19.34375 26 L 29 26 L 29 25 C 29 16.875 27.429688 12.15625 25.375 9.40625 C 23.566406 6.984375 21.484375 6.3125 19.9375 6.15625 L 19 4.5 L 18.71875 4 Z M 17.5625 6.0625 L 18.375 7.5 L 18.65625 8 L 19.25 8 C 20.261719 8 22.097656 8.339844 23.78125 10.59375 C 25.382813 12.738281 26.800781 16.832031 26.9375 24 L 21.5625 24 C 21.671875 23.859375 21.773438 23.707031 21.875 23.5625 C 23.234375 21.625 24 19.207031 24 17 L 22 17 C 22 18.722656 21.355469 20.828125 20.25 22.40625 C 19.144531 23.984375 17.664063 25 16 25 C 14.335938 25 12.855469 23.988281 11.75 22.40625 C 10.644531 20.824219 10 18.710938 10 17 C 10 16.554688 10.085938 16.332031 10.21875 16.15625 C 10.351563 15.980469 10.585938 15.828125 10.9375 15.6875 C 11.644531 15.410156 12.835938 15.292969 14.09375 15.1875 C 15.351563 15.082031 16.664063 14.980469 17.84375 14.4375 C 19.023438 13.894531 20 12.660156 20 11 L 18 11 C 18 12.042969 17.726563 12.304688 17.03125 12.625 C 16.335938 12.945313 15.148438 13.082031 13.90625 13.1875 C 12.664063 13.292969 11.355469 13.351563 10.1875 13.8125 C 9.601563 14.042969 9.039063 14.390625 8.625 14.9375 C 8.210938 15.484375 8 16.214844 8 17 C 8 19.199219 8.769531 21.589844 10.125 23.53125 C 10.234375 23.6875 10.347656 23.847656 10.46875 24 L 5.0625 24 C 5.214844 15.863281 7.007813 11.351563 9.375 8.96875 C 11.695313 6.628906 14.648438 6.121094 17.5625 6.0625 Z M 13 17 C 12.449219 17 12 17.449219 12 18 C 12 18.550781 12.449219 19 13 19 C 13.550781 19 14 18.550781 14 18 C 14 17.449219 13.550781 17 13 17 Z M 19 17 C 18.449219 17 18 17.449219 18 18 C 18 18.550781 18.449219 19 19 19 C 19.550781 19 20 18.550781 20 18 C 20 17.449219 19.550781 17 19 17 Z"/></svg>