<?xml version="1.0" standalone="no"?>
<!DOCTYPE svg PUBLIC "-//W3C//DTD SVG 20010904//EN"
 "http://www.w3.org/TR/2001/REC-SVG-20010904/DTD/svg10.dtd">
<svg version="1.0" xmlns="http://www.w3.org/2000/svg"
 width="256.000000pt" height="256.000000pt" viewBox="0 0 256.000000 256.000000"
 preserveAspectRatio="xMidYMid meet">

<g transform="translate(0.000000,256.000000) scale(0.100000,-0.100000)"
fill="#000000" stroke="none">
<path d="M1709 2041 c-356 -457 -411 -522 -459 -552 -47 -28 -361 -180 -551
-265 l-56 -25 -32 30 c-59 55 -116 76 -211 76 -99 0 -158 -23 -221 -86 -60
-60 -82 -112 -87 -205 -4 -73 -1 -88 23 -143 90 -199 367 -248 510 -89 62 68
79 113 80 208 0 47 -4 99 -8 115 -8 30 -7 30 65 63 57 26 401 122 437 122 4 0
-12 -81 -35 -180 -48 -197 -106 -345 -132 -335 -161 62 -334 -8 -405 -164 -33
-72 -31 -188 6 -263 32 -65 90 -122 153 -150 24 -10 44 -24 44 -31 -1 -7 -9
-47 -19 -90 l-19 -78 32 6 c17 4 38 9 47 11 19 5 29 33 29 79 1 61 9 73 55 80
60 8 158 59 191 98 105 124 104 301 -3 426 l-30 34 129 275 c71 151 142 298
159 326 27 44 104 108 550 456 456 356 544 430 511 430 -4 0 -187 -110 -407
-243 -220 -134 -402 -242 -404 -241 -2 2 410 687 476 790 12 18 12 22 0 27
-10 4 -143 -159 -418 -512z m-307 -543 c30 -24 31 -56 3 -83 -27 -28 -59 -27
-82 3 -41 51 28 120 79 80z m-895 -293 c112 -56 157 -198 100 -313 -108 -217
-439 -136 -438 106 1 177 179 286 338 207z m485 -500 c65 -23 125 -86 145
-154 48 -165 -97 -328 -264 -296 -154 29 -235 189 -169 331 50 108 172 158
288 119z"/>
<path d="M303 2107 c-179 -179 -223 -228 -223 -249 0 -15 5 -30 11 -33 28 -18
73 16 226 167 141 139 165 159 185 153 13 -4 25 -9 27 -11 3 -3 -75 -85 -172
-182 -97 -98 -177 -186 -177 -195 0 -8 5 -19 11 -22 6 -4 93 74 198 179 146
145 189 184 199 174 7 -7 12 -17 12 -23 0 -5 -81 -91 -180 -190 -99 -99 -180
-183 -180 -188 0 -4 7 -10 16 -14 11 -4 69 47 200 178 175 174 185 183 201
166 17 -16 8 -26 -165 -200 -100 -100 -182 -188 -182 -194 0 -38 39 -8 205
157 129 129 188 181 199 177 9 -4 16 -12 16 -19 0 -7 -81 -94 -180 -193 -99
-99 -180 -183 -180 -188 0 -4 7 -10 16 -14 11 -4 69 47 200 178 175 174 185
183 201 166 17 -16 8 -26 -166 -201 -131 -131 -182 -189 -178 -200 4 -9 10
-16 14 -16 5 0 89 81 188 180 99 99 186 180 193 180 7 0 15 -7 19 -16 4 -11
-48 -70 -177 -199 -165 -166 -195 -205 -157 -205 6 0 94 82 194 182 174 173
184 182 200 165 17 -16 8 -26 -166 -201 -131 -131 -182 -189 -178 -200 4 -9
10 -16 14 -16 5 0 89 81 188 180 99 99 185 180 190 180 6 0 16 -5 23 -12 10
-10 -29 -53 -174 -199 -105 -105 -183 -192 -179 -198 3 -6 14 -11 22 -11 9 0
98 81 198 181 161 159 183 178 195 164 12 -14 -5 -35 -136 -166 -82 -82 -146
-149 -142 -149 3 0 28 9 55 21 34 14 81 53 160 131 98 98 114 110 128 98 14
-12 9 -20 -47 -77 -34 -35 -59 -63 -55 -63 15 0 124 59 136 74 7 8 18 13 24
10 18 -6 102 50 123 81 l17 27 -359 359 c-334 333 -362 359 -394 359 -32 0
-53 -19 -257 -223z"/>
<path d="M1492 1375 c-36 -30 -74 -93 -136 -228 l-45 -96 47 15 c64 19 96 18
144 -7 113 -57 204 -184 373 -519 64 -127 130 -247 147 -265 35 -41 89 -55
168 -42 117 18 290 130 290 188 0 18 -113 137 -478 502 l-478 479 -32 -27z"/>
<path d="M1084 1219 c-34 -10 -184 -158 -184 -182 0 -39 29 -21 133 82 109
108 115 119 51 100z"/>
<path d="M918 1178 c-35 -9 -88 -57 -88 -79 0 -5 7 -12 16 -16 11 -4 34 12 72
51 31 31 52 56 47 55 -6 -1 -27 -6 -47 -11z"/>
<path d="M1046 1038 c-76 -83 -76 -141 0 -122 18 5 27 18 39 58 18 61 30 126
22 126 -3 0 -30 -28 -61 -62z"/>
</g>
</svg>
