<?xml version="1.0" standalone="no"?>
<!DOCTYPE svg PUBLIC "-//W3C//DTD SVG 20010904//EN"
 "http://www.w3.org/TR/2001/REC-SVG-20010904/DTD/svg10.dtd">
<svg version="1.0" xmlns="http://www.w3.org/2000/svg"
 width="64.000000pt" height="64.000000pt" viewBox="0 0 64.000000 64.000000"
 preserveAspectRatio="xMidYMid meet">

<g transform="translate(0.000000,64.000000) scale(0.100000,-0.100000)"
fill="#000000" stroke="none">
<path d="M303 518 c-6 -7 -18 -29 -28 -48 -10 -19 -19 -37 -21 -39 -1 -1 -18
9 -37 23 -52 40 -67 35 -67 -20 0 -43 -1 -46 -22 -40 -13 4 -41 10 -62 13
l-39 6 7 -39 c17 -86 93 -186 172 -225 25 -12 43 -23 41 -25 -8 -8 -98 16
-135 35 -21 11 -48 31 -62 46 -20 22 -22 28 -10 35 20 12 6 23 -19 15 -30 -9
-26 -21 24 -70 64 -62 111 -74 275 -74 164 0 211 12 275 74 50 49 54 61 24 70
-25 8 -39 -3 -19 -15 33 -20 -65 -90 -155 -110 -26 -6 -50 -9 -52 -6 -2 2 16
13 41 25 79 39 155 139 172 225 l7 39 -39 -6 c-21 -3 -49 -9 -61 -13 -22 -6
-23 -3 -23 40 0 55 -15 60 -68 19 -20 -15 -37 -23 -39 -17 -9 26 -49 88 -59
91 -6 2 -16 -2 -21 -9z m47 -57 c10 -22 22 -58 26 -80 4 -23 11 -41 16 -41 6
0 8 14 4 34 -6 32 -4 37 31 61 l38 25 7 -22 c11 -41 9 -47 -56 -110 -35 -35
-69 -80 -77 -101 -7 -20 -15 -37 -19 -36 -3 0 -18 27 -34 59 -25 51 -28 67
-23 113 5 55 40 137 57 137 5 0 19 -18 30 -39z m-110 -46 c5 -6 6 -29 3 -52
l-6 -42 -32 25 c-40 30 -46 45 -39 84 l6 30 30 -18 c16 -9 33 -22 38 -27z
m-102 -49 c75 -38 148 -126 166 -199 5 -23 3 -27 -14 -27 -82 0 -210 122 -234
223 -5 23 -3 27 14 27 11 0 42 -11 68 -24z m446 -3 c-24 -101 -152 -223 -234
-223 -17 0 -19 4 -14 28 22 94 153 220 232 222 19 0 22 -4 16 -27z"/>
</g>
</svg>
