<?xml version="1.0" standalone="no"?>
<!DOCTYPE svg PUBLIC "-//W3C//DTD SVG 20010904//EN"
 "http://www.w3.org/TR/2001/REC-SVG-20010904/DTD/svg10.dtd">
<svg version="1.0" xmlns="http://www.w3.org/2000/svg"
 width="256.000000pt" height="256.000000pt" viewBox="0 0 256.000000 256.000000"
 preserveAspectRatio="xMidYMid meet">

<g transform="translate(0.000000,256.000000) scale(0.100000,-0.100000)"
fill="#000000" stroke="none">
<path d="M733 2545 c-182 -40 -214 -118 -124 -301 76 -152 202 -250 355 -277
72 -12 98 -5 104 27 5 25 -14 43 -56 50 -177 31 -290 125 -351 290 -12 32 -19
67 -16 77 11 34 90 54 215 54 106 0 120 -2 172 -28 81 -40 159 -120 203 -210
41 -83 43 -118 11 -227 -9 -30 -16 -82 -16 -116 l0 -62 -87 31 c-80 28 -100
31 -208 31 -98 1 -134 -4 -195 -23 -247 -77 -446 -267 -524 -501 -88 -264 -33
-552 158 -844 171 -258 471 -445 809 -502 90 -15 104 -15 194 0 340 58 637
242 810 504 227 345 260 698 91 987 -49 84 -189 226 -271 274 -121 71 -256
111 -382 111 -75 0 -118 -15 -123 -43 -7 -37 14 -44 141 -49 98 -4 135 -10
189 -30 251 -94 429 -313 461 -569 39 -311 -146 -696 -434 -899 -130 -91 -274
-154 -439 -191 -107 -24 -173 -24 -280 0 -300 67 -542 226 -696 457 -256 384
-241 791 39 1050 129 119 255 174 417 182 189 8 313 -41 450 -178 94 -94 139
-163 175 -267 84 -240 43 -498 -109 -699 -48 -64 -56 -93 -31 -114 23 -19 52
-2 100 62 109 145 166 313 167 493 1 244 -82 437 -258 605 l-79 75 0 95 c0 86
3 101 31 161 35 73 88 137 140 170 59 36 68 83 18 95 -25 6 -64 -16 -121 -69
-18 -17 -34 -29 -36 -26 -2 2 -22 38 -43 79 -112 215 -331 317 -571 265z"/>
</g>
</svg>
