<?xml version="1.0" standalone="no"?>
<!DOCTYPE svg PUBLIC "-//W3C//DTD SVG 20010904//EN"
 "http://www.w3.org/TR/2001/REC-SVG-20010904/DTD/svg10.dtd">
<svg version="1.0" xmlns="http://www.w3.org/2000/svg"
 width="256.000000pt" height="256.000000pt" viewBox="0 0 256.000000 256.000000"
 preserveAspectRatio="xMidYMid meet">

<g transform="translate(0.000000,256.000000) scale(0.100000,-0.100000)"
fill="#000000" stroke="none">
<path d="M596 2538 c-14 -20 -16 -156 -16 -1258 0 -1102 2 -1238 16 -1258 l15
-22 360 0 c229 0 367 4 380 10 19 11 19 35 19 1268 0 965 -3 1261 -12 1270 -9
9 -107 12 -379 12 l-368 0 -15 -22z m684 -193 l0 -115 -75 0 c-66 0 -76 -2
-86 -21 -8 -16 -8 -28 0 -45 10 -22 16 -24 86 -24 l75 0 0 -80 0 -80 -57 0
c-67 0 -107 -17 -111 -47 -6 -38 23 -53 99 -53 l69 0 0 -79 0 -79 -126 -4
c-111 -3 -127 -5 -140 -22 -18 -25 -18 -41 2 -60 12 -13 40 -16 140 -16 l124
0 0 -80 0 -80 -63 0 c-93 0 -132 -36 -90 -82 13 -14 31 -18 85 -18 l68 0 0
-80 0 -80 -67 0 c-92 0 -129 -35 -86 -82 13 -14 31 -18 85 -18 l68 0 0 -80 0
-80 -124 0 c-100 0 -128 -3 -140 -16 -19 -19 -20 -35 -3 -57 10 -14 34 -17
137 -19 l125 -3 3 -82 3 -83 -76 0 c-70 0 -76 -2 -86 -24 -8 -17 -8 -29 0 -45
10 -19 20 -21 86 -21 l75 0 0 -80 0 -80 -57 0 c-67 0 -107 -17 -111 -47 -6
-38 23 -53 99 -53 l69 0 0 -115 0 -115 -300 0 -300 0 0 1180 0 1180 300 0 300
0 0 -115z"/>
<path d="M1717 2398 c-19 -29 -60 -99 -92 -156 -51 -91 -56 -106 -47 -128 11
-22 17 -24 77 -24 l65 0 0 -805 0 -805 -47 0 c-56 0 -96 -18 -101 -44 -5 -26
158 -306 185 -319 33 -15 51 5 142 165 53 94 77 145 74 159 -7 26 -41 39 -104
39 l-49 0 2 802 3 803 50 3 c124 6 125 14 19 199 -46 81 -89 150 -96 155 -29
18 -49 6 -81 -44z m92 -156 c17 -29 31 -55 31 -57 0 -3 -29 -5 -65 -5 -36 0
-65 3 -65 8 0 10 61 115 65 110 1 -1 17 -27 34 -56z m31 -1867 c0 -4 -59 -106
-65 -113 -4 -5 -65 100 -65 111 0 4 29 7 65 7 36 0 65 -2 65 -5z"/>
</g>
</svg>
