<?xml version="1.0" standalone="no"?>
<!DOCTYPE svg PUBLIC "-//W3C//DTD SVG 20010904//EN"
 "http://www.w3.org/TR/2001/REC-SVG-20010904/DTD/svg10.dtd">
<svg version="1.0" xmlns="http://www.w3.org/2000/svg"
 width="256.000000pt" height="256.000000pt" viewBox="0 0 256.000000 256.000000"
 preserveAspectRatio="xMidYMid meet">

<g transform="translate(0.000000,256.000000) scale(0.100000,-0.100000)"
fill="#000000" stroke="none">
<path d="M637 2473 c-13 -13 -7 -39 28 -108 33 -68 57 -146 70 -233 l7 -42
-29 12 c-81 35 -141 91 -154 145 -12 46 -30 59 -60 43 -18 -10 -19 -24 -19
-266 0 -191 3 -263 14 -287 14 -35 55 -81 99 -113 l28 -19 -50 -114 c-128
-286 -164 -428 -164 -646 0 -226 52 -421 175 -657 l53 -103 297 -3 c275 -2
296 -1 303 15 21 56 15 301 -11 432 l-6 31 62 0 63 0 -7 -31 c-26 -131 -32
-376 -11 -432 7 -16 28 -17 302 -15 l295 3 44 79 c140 258 207 546 184 790
-15 157 -49 278 -137 484 -3 8 4 12 19 12 13 0 29 5 36 12 17 17 17 489 0 506
-8 8 -52 12 -131 12 l-120 0 6 103 c6 113 31 208 79 299 54 102 114 93 -618
96 -352 1 -644 -1 -647 -5z m1168 -121 c-39 -95 -57 -182 -58 -279 l-2 -93
-220 0 c-300 0 -438 13 -625 57 -76 18 -90 32 -90 88 0 53 -33 181 -59 234
-12 22 -21 43 -21 46 0 3 247 5 549 5 l550 0 -24 -58z m-1193 -281 c84 -57
220 -103 403 -137 73 -14 177 -19 540 -23 l450 -6 0 -190 0 -189 -107 -4 -108
-3 0 90 c0 79 -2 92 -19 101 -25 13 -27 13 -45 -6 -12 -12 -16 -36 -16 -100
l0 -85 -77 3 -78 3 -3 97 c-3 104 -16 133 -50 111 -13 -8 -18 -31 -22 -109
l-5 -99 -45 -3 c-24 -2 -59 -1 -77 3 l-32 6 -3 106 c-3 88 -6 108 -20 117 -13
8 -23 8 -35 0 -15 -9 -18 -29 -21 -119 l-3 -108 -72 8 c-39 3 -75 9 -79 11 -5
3 -8 54 -8 114 0 115 -6 129 -51 115 -17 -6 -19 -18 -19 -112 l0 -106 -42 7
c-24 4 -60 12 -80 18 l-37 11 -3 95 c-2 77 -6 97 -20 106 -13 8 -23 8 -35 0
-14 -9 -19 -29 -23 -93 l-5 -82 -64 32 c-35 18 -81 49 -103 71 l-38 38 0 170
c0 94 2 170 4 170 3 0 24 -13 48 -29z m138 -526 c86 -34 263 -72 394 -84 60
-6 261 -11 446 -11 l337 0 28 -66 c16 -37 24 -69 19 -74 -13 -12 -143 -46
-264 -69 -327 -61 -669 -51 -995 30 -66 16 -123 33 -128 38 -5 5 16 65 45 135
29 69 53 126 54 126 0 0 29 -11 64 -25z m-76 -340 c209 -57 321 -69 606 -70
290 0 393 12 624 74 75 20 108 26 111 18 2 -7 8 -27 14 -46 17 -53 15 -56 -46
-75 -202 -63 -421 -209 -542 -363 -81 -102 -83 -103 -163 -103 -78 0 -73 -3
-167 113 -122 149 -322 283 -531 353 -30 10 -57 19 -58 20 -2 2 4 28 13 59 13
46 19 55 33 50 9 -4 57 -17 106 -30z m-53 -196 c100 -38 235 -120 323 -195 67
-57 159 -162 183 -209 21 -40 43 -211 43 -332 l0 -123 -243 0 -244 0 -61 128
c-110 230 -147 394 -139 607 2 72 8 138 12 148 8 20 11 19 126 -24z m1444 24
c4 -10 9 -74 12 -143 9 -206 -41 -413 -149 -630 l-53 -105 -244 -3 -244 -2 6
162 c10 256 25 301 148 432 104 112 235 198 404 268 105 43 111 44 120 21z"/>
</g>
</svg>
